Coordinates
nRows=6
nColumns=38

# SIMM Motion File Header:
name Coordinates
datacolumns 38
datarows 6
otherdata 1
range 0.42699999999999999000 0.43200000000000000000

Units are S.I. units (second, meters, Newtons, ...)
Angles are in degrees.

endheader
time	pelvis_tilt	pelvis_list	pelvis_rotation	pelvis_tx	pelvis_ty	pelvis_tz	hip_flexion_r	hip_adduction_r	hip_rotation_r	knee_angle_r	ankle_angle_r	subtalar_angle_r	mtp_angle_r	hip_flexion_l	hip_adduction_l	hip_rotation_l	knee_angle_l	ankle_angle_l	subtalar_angle_l	mtp_angle_l	lumbar_extension	lumbar_bending	lumbar_rotation	arm_flex_r	arm_add_r	arm_rot_r	elbow_flex_r	pro_sup_r	wrist_flex_r	wrist_dev_r	arm_flex_l	arm_add_l	arm_rot_l	elbow_flex_l	pro_sup_l	wrist_flex_l	wrist_dev_l
      0.42699999999999999000	     -9.57692865139644670000	     -2.82728633757208670000	      4.62563830899970260000	      0.93116154834222031000	      0.97115385006649824000	     -0.29966984826566201000	     34.32155110766108700000	      3.04420125385278960000	    -14.52007735294622200000	    -13.04227253920245900000	      5.83180095207767920000	      0.00000000000000000000	      0.00000000000000000000	     -8.88836554358325510000	     -1.65346588882731820000	      3.94637114366092550000	    -39.69643447928648100000	    -21.50478015864260300000	      0.00000000000000000000	      0.00000000000000000000	     -1.23535948777868600000	      1.48061648478641780000	    -12.68017405227872600000	    -46.28301049973717300000	    -13.23425619238294700000	     -7.72238939944145300000	     98.44507954810299600000	     85.05468195872441600000	      0.00000000000000000000	      0.00000000000000000000	     -7.51949826408118940000	    -28.24212538805989000000	      7.28081286288257350000	    124.22841901603550000000	    115.45778265860160000000	      0.00000000000000000000	      0.00000000000000000000
      0.42799999999999999000	     -9.51545079018408830000	     -2.79861796120533100000	      4.67223589328875020000	      0.93136399348118815000	      0.97070979020610915000	     -0.29973742796297687000	     34.20393128616819200000	      2.98294274158881300000	    -14.67500567920325400000	    -13.13636747881197300000	      5.85442764185550240000	      0.00000000000000000221	     -0.00000000000000002105	     -8.81636911811878400000	     -1.61800502939605040000	      4.05917810490564350000	    -40.18586206323969600000	    -21.32721298091333800000	      0.00000000000000000095	      0.00000000000000000020	     -1.28589269591684200000	      1.46570438187294210000	    -12.66278967478420000000	    -46.26578887585387900000	    -13.24721069877987700000	     -7.73043486538777370000	     98.48587222998980900000	     85.07943573704507400000	      0.00000000000000000035	      0.00000000000000000064	     -7.56158143357261460000	    -28.23016058064953500000	      7.26635090105473580000	    124.11352045331674000000	    115.47363378012132000000	      0.00000000000000000089	      0.00000000000000000061
      0.42899999999999999000	     -9.45368911216104560000	     -2.77060721811037780000	      4.71762394667899710000	      0.93156567201472695000	      0.97025666147751510000	     -0.29980572863697386000	     34.08838395546075600000	      2.92199624575462510000	    -14.82939739496419500000	    -13.24406762743622000000	      5.88476844228598230000	      0.00000000000000000915	     -0.00000000000000005562	     -8.74265154213141220000	     -1.58263454146248760000	      4.16806803928091170000	    -40.67832634928768700000	    -21.14913896354528000000	      0.00000000000000000181	      0.00000000000000000225	     -1.33637711297800310000	      1.45218638725701510000	    -12.64311781428604300000	    -46.24776632094168600000	    -13.26186302799961700000	     -7.73858136177570090000	     98.52710397305075700000	     85.10294187780536400000	      0.00000000000000000035	      0.00000000000000000110	     -7.60364812224572000000	    -28.21755442861904600000	      7.25147067990964180000	    123.99552666993522000000	    115.48910708344008000000	      0.00000000000000000257	      0.00000000000000000252
      0.42999999999999999000	     -9.39167501797496480000	     -2.74362198593896480000	      4.76131446593193440000	      0.93176599010029593000	      0.96979497044117569000	     -0.29987406794119653000	     33.97531841940963200000	      2.86184535165671900000	    -14.98218632167677600000	    -13.36555005581908700000	      5.90401582852896570000	      0.00000000000000001799	     -0.00000000000000008685	     -8.66713926294680090000	     -1.54776917206601630000	      4.27234488812280230000	    -41.17373566721062200000	    -20.97090145325364900000	      0.00000000000000000235	      0.00000000000000000595	     -1.38681857483039270000	      1.44049775773878850000	    -12.62065788252912000000	    -46.22878701620082600000	    -13.27829528603697000000	     -7.74687072729692440000	     98.56866629816325100000	     85.12515715320527900000	     -0.00000000000000000012	      0.00000000000000000197	     -7.64561722006453160000	    -28.20415508034162100000	      7.23622804484815770000	    123.87435161254935000000	    115.50429743460144000000	      0.00000000000000000358	      0.00000000000000000359
      0.43099999999999999000	     -9.32835682383518620000	     -2.71771165439398250000	      4.80329776465111550000	      0.93196521697260826000	      0.96932623982622357000	     -0.29994224081898396000	     33.86350727135274500000	      2.80275279001669460000	    -15.13322816394087400000	    -13.50025133374971100000	      5.91571212441052290000	      0.00000000000000003197	     -0.00000000000000012033	     -8.59106304954530130000	     -1.51366325438658980000	      4.37178342713383470000	    -41.67166857495818300000	    -20.79301100062045600000	      0.00000000000000000228	      0.00000000000000001042	     -1.43840304658487380000	      1.43077954105447610000	    -12.59532203955859800000	    -46.20866864765524400000	    -13.29647362217629500000	     -7.75531133103240930000	     98.61060089888073300000	     85.14605956050191100000	     -0.00000000000000000067	      0.00000000000000000327	     -7.68728252413542370000	    -28.19006782793535100000	      7.22067444247134290000	    123.75012133522105000000	    115.51912658986154000000	      0.00000000000000000590	      0.00000000000000000536
      0.43200000000000000000	     -9.26321967007728380000	     -2.69296640303843530000	      4.84362592435078110000	      0.93216328479008703000	      0.96885131728663354000	     -0.30001014224838679000	     33.75241725016110200000	      2.74489019793264030000	    -15.28229840078806700000	    -13.64782035090242500000	      5.91998224476867390000	      0.00000000000000004555	     -0.00000000000000015343	     -8.51495259032050810000	     -1.48057331939257160000	      4.46626196988291650000	    -42.17194021479824100000	    -20.61588271383231000000	      0.00000000000000000218	      0.00000000000000001554	     -1.49171828410461590000	      1.42317185548848360000	    -12.56712178683613200000	    -46.18728085683150700000	    -13.31637354638036000000	     -7.76391105730195720000	     98.65289263138208800000	     85.16563746967601400000	     -0.00000000000000000109	      0.00000000000000000274	     -7.72853975885790500000	    -28.17535027758316700000	      7.20484392142902140000	    123.62293251607139000000	    115.53356121290328000000	      0.00000000000000000797	      0.00000000000000000834
